<?xml version="1.0" standalone="no"?><!-- Generator: Gravit.io --><svg xmlns="http://www.w3.org/2000/svg" xmlns:xlink="http://www.w3.org/1999/xlink" style="isolation:isolate" viewBox="0 0 566 534" width="566" height="534"><defs><clipPath id="_clipPath_kLUgQyL0xdlWIt0NLN3XLtqujOFNykfp"><rect width="566" height="534"/></clipPath></defs><g clip-path="url(#_clipPath_kLUgQyL0xdlWIt0NLN3XLtqujOFNykfp)"><defs><filter id="PFZmM7cbXItAnOcHAb9AQkU8NXPRURah" x="-200%" y="-200%" width="400%" height="400%"><feGaussianBlur xmlns="http://www.w3.org/2000/svg" stdDeviation="8.0267"/></filter></defs><g opacity="0.15" filter="url(#PFZmM7cbXItAnOcHAb9AQkU8NXPRURah)"><path d=" M 542.13647 444.9011 C 542.13647 477.19731 441.5567 503.3784 317.48337 503.3784 C 193.41005 503.3784 92.83028 477.19731 92.83028 444.9011 C 92.83028 412.6049 193.41005 386.4238 317.48337 386.4238 C 441.5567 386.4238 542.13647 412.6049 542.13647 444.9011 L 542.13647 444.9011 Z " fill="rgb(0,0,0)"/></g><line x1="270.98586" y1="254.97538" x2="270.42605" y2="446.35499" vector-effect="non-scaling-stroke" stroke-width="15.99161" stroke="rgb(128,102,0)" stroke-linejoin="round" stroke-linecap="round" stroke-miterlimit="4"/><line x1="71.65042" y1="247.37936" x2="128.81943" y2="443.06672" vector-effect="non-scaling-stroke" stroke-width="15.99161" stroke="rgb(128,102,0)" stroke-linejoin="round" stroke-linecap="round" stroke-miterlimit="4"/><line x1="173.27711" y1="246.74969" x2="200.46185" y2="447.52438" vector-effect="non-scaling-stroke" stroke-width="15.99161" stroke="rgb(128,102,0)" stroke-linejoin="round" stroke-linecap="round" stroke-miterlimit="4"/><line x1="468.08248" y1="244.09109" x2="412.03288" y2="442.51701" vector-effect="non-scaling-stroke" stroke-width="15.99161" stroke="rgb(128,102,0)" stroke-linejoin="round" stroke-linecap="round" stroke-miterlimit="4"/><line x1="367.81507" y1="247.65921" x2="340.95116" y2="448.46389" vector-effect="non-scaling-stroke" stroke-width="15.99161" stroke="rgb(128,102,0)" stroke-linejoin="round" stroke-linecap="round" stroke-miterlimit="4"/><g id="Group"><path d=" M 169.54943 253.12602 C 169.54943 253.12602 204.79557 246.32329 222.8402 246.32329 C 222.8402 246.32329 276.13097 253.12602 276.13097 253.12602" fill="none" vector-effect="non-scaling-stroke" stroke-width="10.27486" stroke="rgb(170,136,0)" stroke-linejoin="round" stroke-linecap="round" stroke-miterlimit="4"/><path d=" M 264.71152 253.12602 C 264.71152 253.12602 299.95765 246.32329 318.00229 246.32329 C 318.00229 246.32329 371.29305 253.12602 371.29305 253.12602" fill="none" vector-effect="non-scaling-stroke" stroke-width="10.27486" stroke="rgb(170,136,0)" stroke-linejoin="round" stroke-linecap="round" stroke-miterlimit="4"/><path d=" M 359.8736 253.12602 C 359.8736 253.12602 395.1854 244.61852 413.16437 242.32532 C 432.79631 239.82103 472.45225 239.13321 472.45225 239.13321" fill="none" vector-effect="non-scaling-stroke" stroke-width="10.27486" stroke="rgb(170,136,0)" stroke-linejoin="round" stroke-linecap="round" stroke-miterlimit="4"/><path d=" M 72.38894 243.1328 C 72.38894 243.1328 109.32325 242.62079 127.67907 244.32594 C 145.6057 245.99131 180.96983 253.12731 180.96983 253.12731" fill="none" vector-effect="non-scaling-stroke" stroke-width="10.27486" stroke="rgb(170,136,0)" stroke-linejoin="round" stroke-linecap="round" stroke-miterlimit="4"/></g><g id="Group"><path d=" M 196.03118 461.64697 C 196.03118 461.64697 221.81765 471.64173 235.33656 471.64173 C 235.33656 471.64173 274.64194 461.64697 274.64194 461.64697" fill="none" vector-effect="non-scaling-stroke" stroke-width="9.99476" stroke="rgb(212,170,0)" stroke-linejoin="round" stroke-linecap="round" stroke-miterlimit="4"/><path d=" M 266.21436 461.64697 C 266.21436 461.64697 292.00084 471.64173 305.51975 471.64173 C 305.51975 471.64173 344.82513 461.64697 344.82513 461.64697" fill="none" vector-effect="non-scaling-stroke" stroke-width="9.99476" stroke="rgb(212,170,0)" stroke-linejoin="round" stroke-linecap="round" stroke-miterlimit="4"/><path d=" M 336.40755 455.65012 C 336.40755 455.65012 362.35793 464.28399 375.71293 463.64592 C 389.39575 462.99224 415.01831 451.65221 415.01831 451.65221" fill="none" vector-effect="non-scaling-stroke" stroke-width="9.99476" stroke="rgb(212,170,0)" stroke-linejoin="round" stroke-linecap="round" stroke-miterlimit="4"/><path d=" M 125.838 451.65221 C 125.838 451.65221 151.46056 462.99227 165.14338 463.64592 C 178.49837 464.28396 204.44876 455.65012 204.44876 455.65012" fill="none" vector-effect="non-scaling-stroke" stroke-width="9.99476" stroke="rgb(212,170,0)" stroke-linejoin="round" stroke-linecap="round" stroke-miterlimit="4"/></g><g id="Group"><path d=" M 229.70352 447.43443 C 229.70352 447.43443 256.69036 454.91001 270.50611 454.91001 C 270.50611 454.91001 311.30871 447.43443 311.30871 447.43443" fill="none" vector-effect="non-scaling-stroke" stroke-width="9.99476" stroke="rgb(170,136,0)" stroke-linejoin="round" stroke-linecap="round" stroke-miterlimit="4"/><path d=" M 304.35436 445.43548 C 304.35436 445.43548 331.3412 452.91105 345.15696 452.91105 C 345.15696 452.91105 385.95956 445.43548 385.95956 445.43548" fill="none" vector-effect="non-scaling-stroke" stroke-width="9.99476" stroke="rgb(170,136,0)" stroke-linejoin="round" stroke-linecap="round" stroke-miterlimit="4"/><path d=" M 167.0064 445.43548 C 167.0064 445.43548 193.99325 452.91105 207.809 452.91105 C 207.809 452.91105 248.6116 445.43548 248.6116 445.43548" fill="none" vector-effect="non-scaling-stroke" stroke-width="9.99476" stroke="rgb(170,136,0)" stroke-linejoin="round" stroke-linecap="round" stroke-miterlimit="4"/><path d=" M 119.55129 443.43652 C 119.55129 443.43652 137.35096 450.9121 146.75402 450.9121 C 146.75402 450.9121 173.95676 443.43652 173.95676 443.43652" fill="none" vector-effect="non-scaling-stroke" stroke-width="9.99476" stroke="rgb(170,136,0)" stroke-linejoin="round" stroke-linecap="round" stroke-miterlimit="4"/><path d=" M 420.29355 443.43652 C 420.29355 443.43652 402.49388 450.9121 393.09081 450.9121 C 393.09081 450.9121 365.88808 443.43652 365.88808 443.43652" fill="none" vector-effect="non-scaling-stroke" stroke-width="9.99476" stroke="rgb(170,136,0)" stroke-linejoin="round" stroke-linecap="round" stroke-miterlimit="4"/></g><g id="Group"><path d=" M 191.41248 431.6627 C 191.41248 431.6627 219.02057 441.65746 233.15483 441.65746 C 233.15483 441.65746 274.89717 431.6627 274.89717 431.6627" fill="none" vector-effect="non-scaling-stroke" stroke-width="10.20937" stroke="rgb(212,170,0)" stroke-linejoin="round" stroke-linecap="round" stroke-miterlimit="4"/><path d=" M 265.95238 431.6627 C 265.95238 431.6627 293.56047 441.65746 307.69473 441.65746 C 307.69473 441.65746 349.43707 431.6627 349.43707 431.6627" fill="none" vector-effect="non-scaling-stroke" stroke-width="10.20937" stroke="rgb(212,170,0)" stroke-linejoin="round" stroke-linecap="round" stroke-miterlimit="4"/><path d=" M 340.49228 431.6627 C 340.49228 431.6627 368.10037 441.65746 382.23463 441.65746 C 382.23463 441.65746 423.97698 431.6627 423.97698 431.6627" fill="none" vector-effect="non-scaling-stroke" stroke-width="10.20937" stroke="rgb(212,170,0)" stroke-linejoin="round" stroke-linecap="round" stroke-miterlimit="4"/><path d=" M 116.87258 431.6627 C 116.87258 431.6627 144.48067 441.65746 158.61492 441.65746 C 158.61492 441.65746 200.35727 431.6627 200.35727 431.6627" fill="none" vector-effect="non-scaling-stroke" stroke-width="10.20937" stroke="rgb(212,170,0)" stroke-linejoin="round" stroke-linecap="round" stroke-miterlimit="4"/></g><g id="Group"><path d=" M 228.64816 419.66899 C 228.64816 419.66899 256.34663 429.66375 270.52724 429.66375 C 270.52724 429.66375 312.40631 419.66899 312.40631 419.66899" fill="none" vector-effect="non-scaling-stroke" stroke-width="10.17045" stroke="rgb(170,136,0)" stroke-linejoin="round" stroke-linecap="round" stroke-miterlimit="4"/><path d=" M 305.26697 419.66899 C 305.26697 419.66899 332.96544 429.66375 347.14605 429.66375 C 347.14605 429.66375 389.02512 419.66899 389.02512 419.66899" fill="none" vector-effect="non-scaling-stroke" stroke-width="10.17045" stroke="rgb(170,136,0)" stroke-linejoin="round" stroke-linecap="round" stroke-miterlimit="4"/><path d=" M 164.28836 419.66899 C 164.28836 419.66899 191.98682 429.66375 206.16743 429.66375 C 206.16743 429.66375 248.04651 419.66899 248.04651 419.66899" fill="none" vector-effect="non-scaling-stroke" stroke-width="10.17045" stroke="rgb(170,136,0)" stroke-linejoin="round" stroke-linecap="round" stroke-miterlimit="4"/><path d=" M 115.58178 419.66899 C 115.58178 419.66899 133.85153 429.66375 143.50244 429.66375 C 143.50244 429.66375 171.4231 419.66899 171.4231 419.66899" fill="none" vector-effect="non-scaling-stroke" stroke-width="10.17045" stroke="rgb(170,136,0)" stroke-linejoin="round" stroke-linecap="round" stroke-miterlimit="4"/><path d=" M 424.26365 419.66899 C 424.26365 419.66899 405.99389 429.66375 396.34299 429.66375 C 396.34299 429.66375 368.42233 419.66899 368.42233 419.66899" fill="none" vector-effect="non-scaling-stroke" stroke-width="10.17045" stroke="rgb(170,136,0)" stroke-linejoin="round" stroke-linecap="round" stroke-miterlimit="4"/></g><g id="Group"><path d=" M 189.17397 409.67423 C 189.17397 409.67423 217.56352 419.66899 232.09786 419.66899 C 232.09786 419.66899 275.02174 409.67423 275.02174 409.67423" fill="none" vector-effect="non-scaling-stroke" stroke-width="10.17019" stroke="rgb(212,170,0)" stroke-linejoin="round" stroke-linecap="round" stroke-miterlimit="4"/><path d=" M 265.82377 409.67423 C 265.82377 409.67423 294.21332 419.66899 308.74765 419.66899 C 308.74765 419.66899 351.67154 409.67423 351.67154 409.67423" fill="none" vector-effect="non-scaling-stroke" stroke-width="10.17019" stroke="rgb(212,170,0)" stroke-linejoin="round" stroke-linecap="round" stroke-miterlimit="4"/><path d=" M 342.47356 409.67423 C 342.47356 409.67423 370.86311 419.66899 385.39745 419.66899 C 385.39745 419.66899 428.32133 409.67423 428.32133 409.67423" fill="none" vector-effect="non-scaling-stroke" stroke-width="10.17019" stroke="rgb(212,170,0)" stroke-linejoin="round" stroke-linecap="round" stroke-miterlimit="4"/><path d=" M 112.52418 409.67423 C 112.52418 409.67423 140.91373 419.66899 155.44806 419.66899 C 155.44806 419.66899 198.37195 409.67423 198.37195 409.67423" fill="none" vector-effect="non-scaling-stroke" stroke-width="10.17019" stroke="rgb(212,170,0)" stroke-linejoin="round" stroke-linecap="round" stroke-miterlimit="4"/></g><g id="Group"><path d=" M 226.18347 395.68157 C 226.18347 395.68157 255.53642 405.67633 270.56407 405.67633 C 270.56407 405.67633 314.94467 395.68157 314.94467 395.68157" fill="none" vector-effect="non-scaling-stroke" stroke-width="10.10261" stroke="rgb(170,136,0)" stroke-linejoin="round" stroke-linecap="round" stroke-miterlimit="4"/><path d=" M 307.37888 395.68157 C 307.37888 395.68157 336.73183 405.67633 351.75948 405.67633 C 351.75948 405.67633 396.14008 395.68157 396.14008 395.68157" fill="none" vector-effect="non-scaling-stroke" stroke-width="10.10261" stroke="rgb(170,136,0)" stroke-linejoin="round" stroke-linecap="round" stroke-miterlimit="4"/><path d=" M 157.97933 395.68157 C 157.97933 395.68157 187.33228 405.67633 202.35993 405.67633 C 202.35993 405.67633 246.74052 395.68157 246.74052 395.68157" fill="none" vector-effect="non-scaling-stroke" stroke-width="10.10261" stroke="rgb(170,136,0)" stroke-linejoin="round" stroke-linecap="round" stroke-miterlimit="4"/><path d=" M 106.3634 395.68157 C 106.3634 395.68157 125.72445 405.67633 135.95182 405.67633 C 135.95182 405.67633 165.54024 395.68157 165.54024 395.68157" fill="none" vector-effect="non-scaling-stroke" stroke-width="10.10261" stroke="rgb(170,136,0)" stroke-linejoin="round" stroke-linecap="round" stroke-miterlimit="4"/><path d=" M 433.48347 395.68157 C 433.48347 395.68157 414.12243 405.67633 403.89506 405.67633 C 403.89506 405.67633 374.30664 395.68157 374.30664 395.68157" fill="none" vector-effect="non-scaling-stroke" stroke-width="10.10261" stroke="rgb(170,136,0)" stroke-linejoin="round" stroke-linecap="round" stroke-miterlimit="4"/></g><g id="Group"><path d=" M 185.12974 383.68786 C 185.12974 383.68786 214.93266 393.68262 230.19059 393.68262 C 230.19059 393.68262 275.25143 383.68786 275.25143 383.68786" fill="none" vector-effect="non-scaling-stroke" stroke-width="10.11198" stroke="rgb(212,170,0)" stroke-linejoin="round" stroke-linecap="round" stroke-miterlimit="4"/><path d=" M 265.59554 383.68786 C 265.59554 383.68786 295.39846 393.68262 310.65638 393.68262 C 310.65638 393.68262 355.71722 383.68786 355.71722 383.68786" fill="none" vector-effect="non-scaling-stroke" stroke-width="10.11198" stroke="rgb(212,170,0)" stroke-linejoin="round" stroke-linecap="round" stroke-miterlimit="4"/><path d=" M 346.06133 383.68786 C 346.06133 383.68786 375.86425 393.68262 391.12217 393.68262 C 391.12217 393.68262 436.18302 383.68786 436.18302 383.68786" fill="none" vector-effect="non-scaling-stroke" stroke-width="10.11198" stroke="rgb(212,170,0)" stroke-linejoin="round" stroke-linecap="round" stroke-miterlimit="4"/><path d=" M 104.66395 383.68786 C 104.66395 383.68786 134.46687 393.68262 149.72479 393.68262 C 149.72479 393.68262 194.78564 383.68786 194.78564 383.68786" fill="none" vector-effect="non-scaling-stroke" stroke-width="10.11198" stroke="rgb(212,170,0)" stroke-linejoin="round" stroke-linecap="round" stroke-miterlimit="4"/></g><g id="Group"><path d=" M 224.53797 369.6952 C 224.53797 369.6952 254.99476 379.68996 270.58753 379.68996 C 270.58753 379.68996 316.63708 369.6952 316.63708 369.6952" fill="none" vector-effect="non-scaling-stroke" stroke-width="10.0677" stroke="rgb(170,136,0)" stroke-linejoin="round" stroke-linecap="round" stroke-miterlimit="4"/><path d=" M 308.78678 369.6952 C 308.78678 369.6952 339.24357 379.68996 354.83634 379.68996 C 354.83634 379.68996 400.88589 369.6952 400.88589 369.6952" fill="none" vector-effect="non-scaling-stroke" stroke-width="10.0677" stroke="rgb(170,136,0)" stroke-linejoin="round" stroke-linecap="round" stroke-miterlimit="4"/><path d=" M 153.76897 369.6952 C 153.76897 369.6952 184.22576 379.68996 199.81853 379.68996 C 199.81853 379.68996 245.86808 369.6952 245.86808 369.6952" fill="none" vector-effect="non-scaling-stroke" stroke-width="10.0677" stroke="rgb(170,136,0)" stroke-linejoin="round" stroke-linecap="round" stroke-miterlimit="4"/><path d=" M 100.212 369.6952 C 100.212 369.6952 120.30113 379.68996 130.91311 379.68996 C 130.91311 379.68996 161.61422 369.6952 161.61422 369.6952" fill="none" vector-effect="non-scaling-stroke" stroke-width="10.0677" stroke="rgb(170,136,0)" stroke-linejoin="round" stroke-linecap="round" stroke-miterlimit="4"/><path d=" M 439.63361 369.6952 C 439.63361 369.6952 419.54448 379.68996 408.9325 379.68996 C 408.9325 379.68996 378.23139 369.6952 378.23139 369.6952" fill="none" vector-effect="non-scaling-stroke" stroke-width="10.0677" stroke="rgb(170,136,0)" stroke-linejoin="round" stroke-linecap="round" stroke-miterlimit="4"/></g><g id="Group"><path d=" M 181.3404 357.70149 C 181.3404 357.70149 212.4671 367.69625 228.40275 367.69625 C 228.40275 367.69625 275.46511 357.70149 275.46511 357.70149" fill="none" vector-effect="non-scaling-stroke" stroke-width="10.06934" stroke="rgb(212,170,0)" stroke-linejoin="round" stroke-linecap="round" stroke-miterlimit="4"/><path d=" M 265.38032 357.70149 C 265.38032 357.70149 296.50702 367.69625 312.44267 367.69625 C 312.44267 367.69625 359.50503 357.70149 359.50503 357.70149" fill="none" vector-effect="non-scaling-stroke" stroke-width="10.06934" stroke="rgb(212,170,0)" stroke-linejoin="round" stroke-linecap="round" stroke-miterlimit="4"/><path d=" M 349.42024 357.70149 C 349.42024 357.70149 380.54694 367.69625 396.48259 367.69625 C 396.48259 367.69625 443.54495 357.70149 443.54495 357.70149" fill="none" vector-effect="non-scaling-stroke" stroke-width="10.06934" stroke="rgb(212,170,0)" stroke-linejoin="round" stroke-linecap="round" stroke-miterlimit="4"/><path d=" M 97.30048 357.70149 C 97.30048 357.70149 128.42719 367.69625 144.36283 367.69625 C 144.36283 367.69625 191.42519 357.70149 191.42519 357.70149" fill="none" vector-effect="non-scaling-stroke" stroke-width="10.06934" stroke="rgb(212,170,0)" stroke-linejoin="round" stroke-linecap="round" stroke-miterlimit="4"/></g><g id="Group"><path d=" M 222.89168 343.70883 C 222.89168 343.70883 254.45375 353.70359 270.61238 353.70359 C 270.61238 353.70359 318.33308 343.70883 318.33308 343.70883" fill="none" vector-effect="non-scaling-stroke" stroke-width="10.04088" stroke="rgb(170,136,0)" stroke-linejoin="round" stroke-linecap="round" stroke-miterlimit="4"/><path d=" M 310.19789 343.70883 C 310.19789 343.70883 341.75996 353.70359 357.91859 353.70359 C 357.91859 353.70359 405.63929 343.70883 405.63929 343.70883" fill="none" vector-effect="non-scaling-stroke" stroke-width="10.04088" stroke="rgb(170,136,0)" stroke-linejoin="round" stroke-linecap="round" stroke-miterlimit="4"/><path d=" M 149.55447 343.70883 C 149.55447 343.70883 181.11654 353.70359 197.27517 353.70359 C 197.27517 353.70359 244.99587 343.70883 244.99587 343.70883" fill="none" vector-effect="non-scaling-stroke" stroke-width="10.04088" stroke="rgb(170,136,0)" stroke-linejoin="round" stroke-linecap="round" stroke-miterlimit="4"/><path d=" M 94.05392 343.70883 C 94.05392 343.70883 114.87208 353.70359 125.86917 353.70359 C 125.86917 353.70359 157.68443 343.70883 157.68443 343.70883" fill="none" vector-effect="non-scaling-stroke" stroke-width="10.04088" stroke="rgb(170,136,0)" stroke-linejoin="round" stroke-linecap="round" stroke-miterlimit="4"/><path d=" M 445.79316 343.70883 C 445.79316 343.70883 424.97499 353.70359 413.9779 353.70359 C 413.9779 353.70359 382.16265 343.70883 382.16265 343.70883" fill="none" vector-effect="non-scaling-stroke" stroke-width="10.04088" stroke="rgb(170,136,0)" stroke-linejoin="round" stroke-linecap="round" stroke-miterlimit="4"/></g><g id="Group"><path d=" M 177.13297 331.71512 C 177.13297 331.71512 209.73005 341.70988 226.41848 341.70988 C 226.41848 341.70988 275.70398 331.71512 275.70398 331.71512" fill="none" vector-effect="non-scaling-stroke" stroke-width="10.03549" stroke="rgb(212,170,0)" stroke-linejoin="round" stroke-linecap="round" stroke-miterlimit="4"/><path d=" M 265.1428 331.71512 C 265.1428 331.71512 297.73989 341.70988 314.42831 341.70988 C 314.42831 341.70988 363.71382 331.71512 363.71382 331.71512" fill="none" vector-effect="non-scaling-stroke" stroke-width="10.03549" stroke="rgb(212,170,0)" stroke-linejoin="round" stroke-linecap="round" stroke-miterlimit="4"/><path d=" M 353.15264 331.71512 C 353.15264 331.71512 385.74972 341.70988 402.43815 341.70988 C 402.43815 341.70988 451.72366 331.71512 451.72366 331.71512" fill="none" vector-effect="non-scaling-stroke" stroke-width="10.03549" stroke="rgb(212,170,0)" stroke-linejoin="round" stroke-linecap="round" stroke-miterlimit="4"/><path d=" M 89.12313 331.71512 C 89.12313 331.71512 121.72021 341.70988 138.40864 341.70988 C 138.40864 341.70988 187.69415 331.71512 187.69415 331.71512" fill="none" vector-effect="non-scaling-stroke" stroke-width="10.03549" stroke="rgb(212,170,0)" stroke-linejoin="round" stroke-linecap="round" stroke-miterlimit="4"/></g><g id="Group"><path d=" M 221.03712 315.72351 C 221.03712 315.72351 253.84394 325.71827 270.63984 325.71827 C 270.63984 325.71827 320.24255 315.72351 320.24255 315.72351" fill="none" vector-effect="non-scaling-stroke" stroke-width="10.01846" stroke="rgb(170,136,0)" stroke-linejoin="round" stroke-linecap="round" stroke-miterlimit="4"/><path d=" M 311.78652 315.72351 C 311.78652 315.72351 344.59334 325.71827 361.38924 325.71827 C 361.38924 325.71827 410.99195 315.72351 410.99195 315.72351" fill="none" vector-effect="non-scaling-stroke" stroke-width="10.01846" stroke="rgb(170,136,0)" stroke-linejoin="round" stroke-linecap="round" stroke-miterlimit="4"/><path d=" M 144.80762 315.72351 C 144.80762 315.72351 177.61444 325.71827 194.41034 325.71827 C 194.41034 325.71827 244.01305 315.72351 244.01305 315.72351" fill="none" vector-effect="non-scaling-stroke" stroke-width="10.01846" stroke="rgb(170,136,0)" stroke-linejoin="round" stroke-linecap="round" stroke-miterlimit="4"/><path d=" M 87.11823 315.72351 C 87.11823 315.72351 108.75743 325.71827 120.18822 325.71827 C 120.18822 325.71827 153.25821 315.72351 153.25821 315.72351" fill="none" vector-effect="non-scaling-stroke" stroke-width="10.01846" stroke="rgb(170,136,0)" stroke-linejoin="round" stroke-linecap="round" stroke-miterlimit="4"/><path d=" M 452.72941 315.72351 C 452.72941 315.72351 431.09022 325.71827 419.65942 325.71827 C 419.65942 325.71827 386.58944 315.72351 386.58944 315.72351" fill="none" vector-effect="non-scaling-stroke" stroke-width="10.01846" stroke="rgb(170,136,0)" stroke-linejoin="round" stroke-linecap="round" stroke-miterlimit="4"/></g><g id="Group"><path d=" M 173.75886 303.7298 C 173.75886 303.7298 207.53462 313.72456 224.82648 313.72456 C 224.82648 313.72456 275.89409 303.7298 275.89409 303.7298" fill="none" vector-effect="non-scaling-stroke" stroke-width="10.0157" stroke="rgb(212,170,0)" stroke-linejoin="round" stroke-linecap="round" stroke-miterlimit="4"/><path d=" M 264.95103 303.7298 C 264.95103 303.7298 298.72679 313.72456 316.01864 313.72456 C 316.01864 313.72456 367.08626 303.7298 367.08626 303.7298" fill="none" vector-effect="non-scaling-stroke" stroke-width="10.0157" stroke="rgb(212,170,0)" stroke-linejoin="round" stroke-linecap="round" stroke-miterlimit="4"/><path d=" M 356.1432 303.7298 C 356.1432 303.7298 389.91895 313.72456 407.21081 313.72456 C 407.21081 313.72456 458.27843 303.7298 458.27843 303.7298" fill="none" vector-effect="non-scaling-stroke" stroke-width="10.0157" stroke="rgb(212,170,0)" stroke-linejoin="round" stroke-linecap="round" stroke-miterlimit="4"/><path d=" M 82.5667 303.7298 C 82.5667 303.7298 116.34245 313.72456 133.63431 313.72456 C 133.63431 313.72456 184.70192 303.7298 184.70192 303.7298" fill="none" vector-effect="non-scaling-stroke" stroke-width="10.0157" stroke="rgb(212,170,0)" stroke-linejoin="round" stroke-linecap="round" stroke-miterlimit="4"/></g><g id="Group"><path d=" M 218.35257 287.73819 C 218.35257 287.73819 252.95948 297.73295 270.67697 297.73295 C 270.67697 297.73295 323.00136 287.73819 323.00136 287.73819" fill="none" vector-effect="non-scaling-stroke" stroke-width="9.99943" stroke="rgb(170,136,0)" stroke-linejoin="round" stroke-linecap="round" stroke-miterlimit="4"/><path d=" M 314.08136 287.73819 C 314.08136 287.73819 348.68827 297.73295 366.40575 297.73295 C 366.40575 297.73295 418.73015 287.73819 418.73015 287.73819" fill="none" vector-effect="non-scaling-stroke" stroke-width="9.99943" stroke="rgb(170,136,0)" stroke-linejoin="round" stroke-linecap="round" stroke-miterlimit="4"/><path d=" M 137.94039 287.73819 C 137.94039 287.73819 172.5473 297.73295 190.26478 297.73295 C 190.26478 297.73295 242.58918 287.73819 242.58918 287.73819" fill="none" vector-effect="non-scaling-stroke" stroke-width="9.99943" stroke="rgb(170,136,0)" stroke-linejoin="round" stroke-linecap="round" stroke-miterlimit="4"/><path d=" M 75.08486 285.73924 C 75.08486 285.73924 99.04195 297.50407 111.96821 297.73295 C 124.06258 297.94679 146.85274 287.73819 146.85274 287.73819" fill="none" vector-effect="non-scaling-stroke" stroke-width="9.99943" stroke="rgb(170,136,0)" stroke-linejoin="round" stroke-linecap="round" stroke-miterlimit="4"/><path d=" M 464.75847 285.73924 C 464.75847 285.73924 440.80138 297.50407 427.87512 297.73295 C 415.78075 297.94679 392.9906 287.73819 392.9906 287.73819" fill="none" vector-effect="non-scaling-stroke" stroke-width="9.99943" stroke="rgb(170,136,0)" stroke-linejoin="round" stroke-linecap="round" stroke-miterlimit="4"/></g><g id="Group"><path d=" M 169.53981 275.74448 C 169.53981 275.74448 204.78964 285.73924 222.83617 285.73924 C 222.83617 285.73924 276.13254 275.74448 276.13254 275.74448" fill="none" vector-effect="non-scaling-stroke" stroke-width="10.00093" stroke="rgb(212,170,0)" stroke-linejoin="round" stroke-linecap="round" stroke-miterlimit="4"/><path d=" M 264.71189 275.74448 C 264.71189 275.74448 299.96172 285.73924 318.00825 285.73924 C 318.00825 285.73924 371.30462 275.74448 371.30462 275.74448" fill="none" vector-effect="non-scaling-stroke" stroke-width="10.00093" stroke="rgb(212,170,0)" stroke-linejoin="round" stroke-linecap="round" stroke-miterlimit="4"/><path d=" M 359.88397 275.74448 C 359.88397 275.74448 398.00895 282.86465 417.17851 281.74134 C 435.35733 280.6761 470.47488 269.74763 470.47488 269.74763" fill="none" vector-effect="non-scaling-stroke" stroke-width="10.00093" stroke="rgb(212,170,0)" stroke-linejoin="round" stroke-linecap="round" stroke-miterlimit="4"/><path d=" M 70.37431 269.74763 C 70.37431 269.74763 105.33482 282.65686 123.67067 283.74029 C 142.92018 284.87819 180.96522 275.74448 180.96522 275.74448" fill="none" vector-effect="non-scaling-stroke" stroke-width="10.00093" stroke="rgb(212,170,0)" stroke-linejoin="round" stroke-linecap="round" stroke-miterlimit="4"/></g><g id="Group"><path d=" M 216.08066 259.75287 C 216.08066 259.75287 252.21271 269.74763 270.71101 269.74763 C 270.71101 269.74763 325.34135 259.75287 325.34135 259.75287" fill="none" vector-effect="non-scaling-stroke" stroke-width="9.99476" stroke="rgb(170,136,0)" stroke-linejoin="round" stroke-linecap="round" stroke-miterlimit="4"/><path d=" M 316.02824 259.75287 C 316.02824 259.75287 352.16028 269.74763 370.65858 269.74763 C 370.65858 269.74763 425.28893 259.75287 425.28893 259.75287" fill="none" vector-effect="non-scaling-stroke" stroke-width="9.99476" stroke="rgb(170,136,0)" stroke-linejoin="round" stroke-linecap="round" stroke-miterlimit="4"/><path d=" M 132.1247 259.75287 C 132.1247 259.75287 168.25675 269.74763 186.75504 269.74763 C 186.75504 269.74763 241.38539 259.75287 241.38539 259.75287" fill="none" vector-effect="non-scaling-stroke" stroke-width="9.99476" stroke="rgb(170,136,0)" stroke-linejoin="round" stroke-linecap="round" stroke-miterlimit="4"/><path d=" M 66.58907 255.75497 C 66.58907 255.75497 91.78985 265.14574 105.00992 265.74972 C 117.30147 266.31129 141.43182 259.75287 141.43182 259.75287" fill="none" vector-effect="non-scaling-stroke" stroke-width="9.99476" stroke="rgb(170,136,0)" stroke-linejoin="round" stroke-linecap="round" stroke-miterlimit="4"/><path d=" M 473.25577 253.75602 C 473.25577 253.75602 449.42327 263.66692 436.83387 263.75077 C 423.60081 263.83893 398.41302 253.75602 398.41302 253.75602" fill="none" vector-effect="non-scaling-stroke" stroke-width="9.99476" stroke="rgb(170,136,0)" stroke-linejoin="round" stroke-linecap="round" stroke-miterlimit="4"/></g><g id="Group"><path d=" M 173.01325 243.76126 C 173.01325 243.76126 204.41678 260.37554 221.64674 261.75182 C 238.79575 263.1216 272.27918 251.75706 272.27918 251.75706" fill="none" vector-effect="non-scaling-stroke" stroke-width="9.99476" stroke="rgb(212,170,0)" stroke-linejoin="round" stroke-linecap="round" stroke-miterlimit="4"/><path d=" M 268.57313 251.75706 C 268.57313 251.75706 302.02358 262.61237 319.20557 261.75182 C 337.51796 260.83464 371.83696 245.76021 371.83696 245.76021" fill="none" vector-effect="non-scaling-stroke" stroke-width="9.99476" stroke="rgb(212,170,0)" stroke-linejoin="round" stroke-linecap="round" stroke-miterlimit="4"/><path d=" M 366.12196 243.76126 C 366.12196 243.76126 402.37395 252.72666 420.75231 251.75706 C 439.52446 250.76675 475.38265 237.7644 475.38265 237.7644" fill="none" vector-effect="non-scaling-stroke" stroke-width="9.99476" stroke="rgb(212,170,0)" stroke-linejoin="round" stroke-linecap="round" stroke-miterlimit="4"/><path d=" M 67.46861 239.76336 C 67.46861 239.76336 103.31281 253.10036 122.09896 253.75602 C 140.60025 254.40189 176.7293 243.76126 176.7293 243.76126" fill="none" vector-effect="non-scaling-stroke" stroke-width="9.99476" stroke="rgb(212,170,0)" stroke-linejoin="round" stroke-linecap="round" stroke-miterlimit="4"/></g></g></svg>